Patient4_TMGait_0pt6_02_left_43_EMG.mot
version=1
nRows=26
nColumns=33
inDegrees=no
endheader
time	1LAddLong	2LGlutMax	3LGlutMed	4LIliopsoas	5LSemiMemb	6LBicFemLong	7LRecFem	8LVastMed	9LVastLat	10LGasMed	11LTibAnt	12lTibPost	13LPeroneusLong	14LSol	15LExtDigLong	16LFlexDigLong	17RAddLong	18RGlutMax	19RGlutMed	20RIliopsoas	21RSemiMemb	22RBicFemLong	23RRecFem	24RVastMed	25RVastLat	26RGasMed	27RTibAnt	28RTibPost	29RPeroneusLong	30RSol	31RExtDigLong	32RFlexDigLong
53.753	0.023346	0.057068	-0.10284	0.010529	-0.004883	0.065155	-0.030823	0.002289	0.084381	0.097351	0.088654	0.011902	0.06134	-0.028076	-0.13489	0.00946	-0.025787	-0.41229	-0.01236	0.020752	0.17288	-0.1799	0.27618	-0.066986	0.047913	-0.006409	0.22049	-0.010529	-0.017242	-0.28122	-0.002899	-0.015106
53.754	0.027771	0.069885	-0.09552	0.013123	-0.028534	0.054169	-0.028229	0.003357	0.073242	0.097198	0.057831	-0.005188	0.072021	-0.011292	-0.070801	0.016022	-0.011749	-0.41962	0.12634	0.021667	0.10269	-0.13473	0.39246	0.04364	0.018768	-0.019836	0.25818	-0.018463	-0.070343	-0.42999	-0.002747	-0.015106
53.755	0.016785	0.06897	-0.066071	-0.011597	-0.0737	0.005188	-0.023499	0.003052	0.07782	0.038757	-0.09903	0.001526	0.12772	-0.001831	-0.09491	0.014648	-0.005798	-0.3891	-0.19562	0.069733	0.042267	-0.058289	0.33142	0.30594	-0.027618	-0.020142	0.43778	-0.02121	-0.090179	-0.2626	-0.002899	-0.013275
53.756	0.012054	0.081482	0.025482	0.011292	-0.020752	-0.020294	-0.041199	0.002136	0.082245	0.043335	-0.10712	0.001984	0.085449	-0.027924	-0.029297	0.006256	0.002441	-0.35721	-0.39124	0.083618	0.009155	-0.008698	-0.052795	0.58838	-0.11047	0.037384	-0.40237	-0.010223	0.12726	0.10849	-0.00412	-0.012512
53.757	0.007477	0.09613	0.075378	-0.00885	-0.031586	-0.019684	-0.032349	0.004578	0.074615	0.021362	-0.024414	0.002136	0.045471	-0.046234	0.12909	-0.001373	0.018921	-0.36224	-0.43198	0.18799	-0.1355	0.009155	-0.089874	0.39108	-0.11597	0.076752	-0.68207	-0.005341	0.30533	0.74066	-0.006714	0.001068
53.758	0.004425	0.062866	0.072632	-0.013123	0.015869	-0.028687	-0.037079	0.007782	0.072784	-0.010529	-0.007935	0.00412	0.063782	-0.006256	0.06485	0.010376	-0.00061	-0.32806	-0.47852	0.18097	-0.018005	-0.019531	0.03418	0.14069	-0.10696	0.007782	-0.31311	-0.003967	0.30853	1.568	-0.004883	0.003815
53.759	0.010529	0.081329	0.069275	-0.014191	0.031738	-0.018768	-0.042572	0.007172	0.069275	-0.022888	0.01236	0.009766	0.056763	0.003967	0.20187	0.01297	-0.040894	-0.24185	-0.025482	0.007629	0.007172	0.10971	-0.028381	-0.13718	-0.17822	-0.11688	-0.11124	0.007477	0.15015	1.2563	-0.010071	-0.005188
53.76	0.014954	0.084381	0.051727	0.014038	0.023346	-0.010681	-0.047302	0.004578	0.069885	-0.032196	-0.04303	0.003815	0.039673	-0.001068	0.063019	0.005646	-0.031891	-0.24643	0.039368	-0.081329	-0.019379	0.10056	-0.17777	-0.26016	-0.14877	-0.12817	0.30518	0.048065	-0.10696	0.54688	-0.002441	-0.013123
53.761	0.026093	0.097961	0.032043	0.023041	0.007629	0.037994	-0.045471	0.007019	0.073395	-0.025787	-0.10193	-0.002289	0.038452	0.02533	-0.13443	-0.002594	-0.035858	-0.23239	0.93887	-0.13062	-0.001068	-0.050354	-0.3212	-0.13382	0.13702	-0.031281	0.30914	0.020447	-0.14999	0.40237	-0.005646	-0.007935
53.762	0.02594	0.092163	0.023041	-0.00061	-0.018616	0.014648	-0.039063	0.004272	0.063782	-0.007019	-0.015564	-0.012054	0.036926	-0.02533	-0.30975	0.002289	-0.002594	-0.27344	0.59403	-0.11185	-0.026245	-0.13077	-0.088348	-0.14435	0.15579	0.016937	-0.005493	0.009918	-0.18555	0.1236	-0.005341	0.001831
53.763	0.016632	0.12375	0.006866	0.012817	-0.006866	0.001984	-0.036163	0.000458	0.0737	-0.004425	-0.012665	0.005341	0.044708	-0.04776	-0.096283	0.011749	-0.00824	-0.29282	-0.52094	-0.067596	-0.03067	-0.093842	-0.34027	-0.24399	0.13184	0.03067	0.12543	0.003204	-0.19959	-0.42755	0.001373	-0.006409
53.764	0.019989	0.14099	-0.016022	0.015564	0.000458	0.00473	-0.046082	0.000458	0.068359	-0.001831	-0.079651	-0.000916	0.061951	-0.072327	0.07431	0.007477	-0.007324	-0.24094	-0.96313	0.11231	-0.041504	-0.088348	-0.33203	-0.26489	0.10437	0.037079	0.54275	0.000153	0.096283	-0.66025	-0.003052	-0.003815
53.765	0.015564	0.16068	-0.030975	0.000458	0.012512	0.007324	-0.041504	0.00473	0.074463	0.004425	0.002441	-0.003815	0.1236	-0.088043	0.121	0.019379	0.006409	-0.22018	-0.31662	0.12878	-0.036621	-0.070648	-0.059814	-0.14755	0.12863	0.023956	0.23193	0.001221	0.18082	-0.86395	-0.001831	-0.000916
53.766	0.014954	0.15564	-0.025482	0.009918	0.009003	-0.001526	-0.044556	0.006866	0.061646	-0.003967	0.21347	0.000305	0.091248	-0.083466	0.058746	0.007324	0.017853	-0.079498	0.52185	-0.042114	-0.045166	-0.08667	-0.007019	-0.14389	0.10925	0.0177	-0.2533	-0.005035	0.025482	-0.5835	-0.002747	0.001068
53.767	0.027618	0.15595	-0.013428	0.009155	-0.00946	0.009918	-0.057678	0.003357	0.055847	-0.007629	0.29327	0.000916	0.057983	-0.077667	0.24902	0.012665	0.015564	-0.13473	0.85831	-0.081177	-0.084534	-0.072021	-0.02533	-0.16083	0.25971	-0.000916	0.13687	-0.003357	-0.13931	-0.13718	-0.002289	-0.001526
53.768	0.013885	0.15518	0.001526	-0.006561	-0.018921	0.007935	-0.061951	0.001831	0.05188	-0.002594	0.19531	-0.00473	0.053406	-0.063019	-0.10101	0.007935	0.025024	-0.16663	0.090942	-0.056915	-0.1564	-0.072174	0.14618	-0.13458	0.29572	0.000916	0.58105	-0.006409	-0.27435	-0.026093	-0.004883	0.010376
53.769	0.023499	0.15823	-0.006409	-0.002594	-0.010986	-0.007324	-0.049744	0.005646	0.046234	-0.013123	-0.045166	0.003204	0.09201	-0.021973	-0.26413	0.009003	0.030823	-0.18417	-0.56046	-0.016479	-0.16785	-0.061188	0.19211	-0.18768	0.2179	0.007019	-0.34576	0.000458	-0.027924	0.41611	-0.001526	-0.000153
53.77	0.018616	0.14725	-0.039673	-0.002747	-0.022278	0.026855	-0.062256	0.001831	0.042419	-0.02533	-0.15457	0.034485	0.12161	-0.008545	-0.1442	0.017548	0.027771	-0.16419	-0.64712	-0.063629	-0.05127	-0.079651	-0.058441	-0.20447	0.28183	0.005035	-0.56702	-0.003967	0.11978	0.55283	-0.006409	-0.004272
53.771	0.015717	0.18707	-0.093231	0.012665	-0.024719	0.008545	-0.046082	0.005493	0.051422	-0.01709	-0.15884	0.015717	0.079956	0.023346	0.13229	0.005341	0.024261	-0.1503	-0.27695	-0.11688	0.066986	-0.067749	-0.056305	-0.28137	0.42343	0.000916	-0.028534	0	0.048065	0.36667	-0.001221	-0.009155
53.772	0.02533	0.22186	-0.12802	0.021057	-0.012665	-0.007019	-0.049438	0.001831	0.035553	-0.002136	-0.21149	-0.007477	0.054169	-0.014191	-0.12146	0.008087	-0.013275	-0.11963	-0.095215	0.001678	0.14008	-0.032806	-0.27435	0.16312	0.49927	0.003967	-0.092773	0.004883	-0.060883	-0.074768	-0.001984	-0.012665
53.773	0.021362	0.2211	-0.16815	0.008698	0.009613	-0.042267	-0.047455	0.003052	0.045319	-0.006409	-0.25909	-0.005646	0.049438	-0.023804	-0.13062	-0.003815	0.005951	-0.15671	0.080719	0.10819	0.044861	-0.055389	0.028687	0.30914	-0.083618	0.01236	-0.45502	0.002594	0.003204	-0.51514	-0.003967	-0.00061
53.774	0.020447	0.22079	-0.10178	0.01297	0.023041	-0.003052	-0.050201	-0.003052	0.039978	-0.011597	-0.15015	0.003204	0.04364	-0.065002	-0.19913	0.002747	0.020599	-0.17487	0.34546	0.12863	0.046082	-0.065765	0.20645	0.23392	-0.73608	0.019836	-0.67108	-0.00412	0.14069	-0.43915	-0.003815	-0.012512
53.775	0.018463	0.24277	-0.039825	0.015259	0.00473	-0.006104	-0.039673	0.00412	0.033569	-0.005646	0.050507	-0.000153	0.02655	-0.14099	-0.18845	0.00412	0.010986	-0.074158	0.21088	0.10773	0.024719	-0.065155	-0.069275	0.16098	-0.05661	0.013275	-0.46158	-0.006256	0.064087	-0.31647	-0.005341	-0.009155
53.776	0.014954	0.24368	0.008087	0.012207	0.010376	0.013428	-0.052643	0.005341	0.02533	-0.008698	0.17578	0.002594	0.031586	-0.112	-0.033112	0.006409	0.025024	-0.079651	-0.34622	0.048676	-0.009918	-0.075226	-0.26032	-0.040588	0.30777	0.005341	0.18906	-0.00824	-0.16556	0.00946	-0.00412	-0.014038
53.777	0.020599	0.24872	0.063782	0	0.00885	0.027008	-0.055542	0.007324	0.024872	-0.013428	0.23102	0.001831	0.03067	-0.10208	0.094757	0.005798	0.040588	-0.072021	-0.43839	-0.014801	-0.12817	-0.090637	-0.4921	-0.095825	0.35553	0.004425	0.16953	-0.006561	-0.13245	0.032501	-0.005493	-0.01297
53.778	0.014343	0.25467	0.019226	-0.003357	0.011292	0.035858	-0.045624	0.007477	0.028839	-0.025024	0.12299	0.007324	0.028381	-0.10361	0.087891	0.003204	0.067291	-0.055695	-0.005341	-0.012512	-0.13825	-0.060577	-0.63644	-0.12909	0.28	0.004425	0.43762	-0.001068	-0.068207	-0.06485	-0.001373	-0.007324
